<?xml version="1.0" encoding="iso-8859-1"?>
<!-- Generator: Adobe Illustrator 19.0.0, SVG Export Plug-In . SVG Version: 6.00 Build 0)  -->
<svg version="1.1" id="Capa_1" xmlns="http://www.w3.org/2000/svg" xmlns:xlink="http://www.w3.org/1999/xlink" x="0px" y="0px"
	 viewBox="0 0 512 512" style="enable-background:new 0 0 512 512;" xml:space="preserve">
<g>
	<g>
		<g>
			<path d="M405.333,0H106.667C83.146,0,64,19.135,64,42.667v426.667C64,492.865,83.146,512,106.667,512h298.667
				C428.854,512,448,492.865,448,469.333V42.667C448,19.135,428.854,0,405.333,0z M320,21.333h64v100.073l-27.229-13.615
				c-3-1.5-6.542-1.5-9.542,0L320,121.406V21.333z M426.667,469.333c0,11.76-9.563,21.333-21.333,21.333H106.667
				c-11.771,0-21.333-9.573-21.333-21.333V42.667c0-11.76,9.563-21.333,21.333-21.333h192v117.333c0,3.698,1.917,7.125,5.063,9.073
				c3.125,1.938,7.063,2.115,10.375,0.469L352,129.26l37.896,18.948c1.5,0.75,3.146,1.125,4.771,1.125
				c1.958,0,3.896-0.531,5.604-1.594c3.146-1.948,5.063-5.375,5.063-9.073V21.333c11.771,0,21.333,9.573,21.333,21.333V469.333z"/>
			<path d="M256,117.333c0-5.896-4.771-10.667-10.667-10.667H138.667c-5.896,0-10.667,4.771-10.667,10.667
				c0,5.896,4.771,10.667,10.667,10.667h106.667C251.229,128,256,123.229,256,117.333z"/>
			<path d="M352,213.333H160c-5.896,0-10.667,4.771-10.667,10.667s4.771,10.667,10.667,10.667h192
				c5.896,0,10.667-4.771,10.667-10.667S357.896,213.333,352,213.333z"/>
			<path d="M352,298.667H160c-5.896,0-10.667,4.771-10.667,10.667c0,5.896,4.771,10.667,10.667,10.667h192
				c5.896,0,10.667-4.771,10.667-10.667C362.667,303.438,357.896,298.667,352,298.667z"/>
			<path d="M352,384H160c-5.896,0-10.667,4.771-10.667,10.667s4.771,10.667,10.667,10.667h192c5.896,0,10.667-4.771,10.667-10.667
				S357.896,384,352,384z"/>
		</g>
	</g>
</g>
<g>
</g>
<g>
</g>
<g>
</g>
<g>
</g>
<g>
</g>
<g>
</g>
<g>
</g>
<g>
</g>
<g>
</g>
<g>
</g>
<g>
</g>
<g>
</g>
<g>
</g>
<g>
</g>
<g>
</g>
</svg>
